<svg width="48" height="46" viewBox="0 0 48 46" fill="none" xmlns="http://www.w3.org/2000/svg">
<path d="M43.5292 0.633828C43.5292 0.633828 48.9933 10.9711 42.1016 17.2857C42.1016 17.2857 35.5493 22.5811 19.7321 33.0736C19.7321 33.0736 34.3063 18.6402 43.5292 0.633828Z" fill="#F1B62C"/>
<path d="M43.5358 17.5629C43.5358 17.5629 45.9594 27.6758 37.923 31.8351C26.4657 37.765 16.6299 39.979 6.26457 42.4703C6.26457 42.4703 33.3566 27.1158 43.5358 17.5629Z" fill="#2F4C72"/>
<path d="M39.3066 32.1568C39.3066 32.1568 40.4066 40.3006 30.1686 42.828C30.1686 42.828 18.0365 46.3612 0.00226029 44.5289C0.00226029 44.5289 24.1088 40.8997 39.3066 32.1568Z" fill="#0D0D0D"/>
</svg>
