<svg width="182" height="48" viewBox="0 0 182 48" fill="none" xmlns="http://www.w3.org/2000/svg">
<g filter="url(#filter0_dd_961_83090)">
<path d="M40.2739 4.36165C40.2739 4.36165 44.8274 12.976 39.0843 18.2382C39.0843 18.2382 33.624 22.651 20.443 31.3948C20.443 31.3948 32.5881 19.3669 40.2739 4.36165Z" fill="#F1B62C"/>
<path d="M40.2795 18.4688C40.2795 18.4688 42.2991 26.8962 35.6021 30.3624C26.0544 35.3039 17.8578 37.1489 9.22007 39.225C9.22007 39.225 31.7967 26.4296 40.2795 18.4688Z" fill="#2F4C72"/>
<path d="M36.7561 30.6311C36.7561 30.6311 37.6728 37.4175 29.1411 39.5237C29.1411 39.5237 19.031 42.468 4.00249 40.9411C4.00249 40.9411 24.0912 37.9168 36.7561 30.6311Z" fill="#0D0D0D"/>
</g>
<path d="M49.0287 14.5562C49.3928 14.5754 49.8622 14.5945 50.437 14.6137C51.0309 14.6328 51.5769 14.6424 52.0751 14.6424C52.5732 14.6424 53.1384 14.6424 53.7707 14.6424C54.4221 14.6233 55.0735 14.6137 55.725 14.6137C56.3956 14.5945 56.9799 14.5849 57.4781 14.5849C59.0875 14.5849 60.419 14.7286 61.4728 15.016C62.5266 15.3034 63.3121 15.7632 63.8294 16.3955C64.3467 17.0278 64.6054 17.8708 64.6054 18.9246C64.6054 20.0933 64.2222 21.0992 63.4558 21.9422C62.6894 22.766 61.6165 23.2738 60.237 23.4654C61.4249 23.542 62.4308 23.7719 63.2546 24.1551C64.0977 24.5191 64.7395 25.0556 65.1802 25.7645C65.6208 26.4734 65.8412 27.3739 65.8412 28.466C65.8412 29.5389 65.5729 30.4969 65.0365 31.3399C64.5 32.1829 63.6474 32.8535 62.4787 33.3516C61.31 33.8306 59.7485 34.0701 57.7942 34.0701C57.1045 34.0701 56.3572 34.0701 55.5525 34.0701C54.767 34.0701 53.9815 34.0701 53.1959 34.0701C52.4104 34.0893 51.6536 34.0989 50.9255 34.0989C50.2166 34.118 49.5748 34.1372 49 34.1563C49 33.8115 49.0096 33.4858 49.0287 33.1792C49.0671 32.8727 49.1245 32.614 49.2012 32.4033C49.7185 32.3649 50.1112 32.2691 50.3795 32.1159C50.6669 31.9434 50.868 31.6465 50.983 31.2249C51.098 30.8034 51.1554 30.1808 51.1554 29.3569V19.1545C51.1554 18.4073 51.098 17.8421 50.983 17.4589C50.8872 17.0565 50.6956 16.7787 50.4082 16.6254C50.1208 16.4721 49.7185 16.3668 49.2012 16.3093C49.1245 16.0985 49.0766 15.8207 49.0575 15.4759C49.0383 15.131 49.0287 14.8244 49.0287 14.5562ZM55.4376 15.7058V29.5006C55.4376 30.3244 55.5142 30.9471 55.6675 31.3686C55.8399 31.771 56.0986 32.0392 56.4434 32.1733C56.8075 32.3075 57.2481 32.3745 57.7655 32.3745C58.8001 32.3745 59.6048 32.0584 60.1795 31.4261C60.7735 30.7939 61.0705 29.9221 61.0705 28.8109C61.0705 28.0253 60.9363 27.3739 60.6681 26.8566C60.419 26.3393 60.0646 25.9465 59.6048 25.6783C59.1449 25.3909 58.618 25.1897 58.0241 25.0748C57.4302 24.9406 56.7979 24.8736 56.1273 24.8736H54.6904V23.1492H56.4147C57.3344 23.1492 58.072 23.0055 58.6276 22.7181C59.1833 22.4307 59.5856 22.0284 59.8347 21.5111C60.0837 20.9938 60.2083 20.3998 60.2083 19.7293C60.2083 18.9246 60.0358 18.2731 59.691 17.775C59.3461 17.2768 58.9054 16.9128 58.369 16.6829C57.8517 16.453 57.296 16.338 56.7021 16.338C56.3955 16.338 56.1177 16.3668 55.8687 16.4242C55.6196 16.4817 55.3418 16.5679 55.0352 16.6829L55.4376 15.7058Z" fill="#2F4C72"/>
<path d="M67.8794 34.1563C67.8794 33.8115 67.889 33.4953 67.9081 33.208C67.9465 32.9014 68.0039 32.6332 68.0806 32.4033C68.847 32.3841 69.3547 32.2021 69.6038 31.8572C69.872 31.5123 70.0061 30.8609 70.0061 29.9029V25.2759C70.0061 24.8161 69.9582 24.4425 69.8624 24.1551C69.7666 23.8677 69.5654 23.657 69.2589 23.5228C68.9523 23.3696 68.4925 23.2738 67.8794 23.2354C67.8794 22.9481 67.8986 22.6702 67.9369 22.402C67.9752 22.1146 68.0614 21.8464 68.1955 21.5973C68.8278 21.5973 69.4792 21.5494 70.1498 21.4536C70.8395 21.3578 71.4622 21.2429 72.0178 21.1087C72.5926 20.9555 73.0141 20.8022 73.2824 20.6489C73.5314 20.7447 73.7326 20.9171 73.8859 21.1662C74.0392 21.3961 74.1158 21.7314 74.1158 22.1721V29.9029C74.1158 30.8609 74.2403 31.5123 74.4894 31.8572C74.7385 32.2021 75.2079 32.3841 75.8976 32.4033C75.9743 32.6332 76.0222 32.911 76.0413 33.2367C76.0796 33.5432 76.0988 33.8498 76.0988 34.1563C75.8114 34.1372 75.4474 34.118 75.0067 34.0989C74.566 34.0989 74.0871 34.0893 73.5698 34.0701C73.0525 34.0701 72.5351 34.0701 72.0178 34.0701C71.5005 34.0701 70.9737 34.0701 70.4372 34.0701C69.9007 34.0893 69.4122 34.0989 68.9715 34.0989C68.5308 34.118 68.1668 34.1372 67.8794 34.1563ZM71.7017 18.3785C71.012 18.3785 70.4468 18.1965 70.0061 17.8325C69.5846 17.4493 69.3738 16.9607 69.3738 16.3668C69.3738 15.677 69.6133 15.1406 70.0923 14.7574C70.5713 14.3742 71.1461 14.1826 71.8167 14.1826C72.6022 14.1826 73.2057 14.3742 73.6272 14.7574C74.0487 15.1406 74.2595 15.6675 74.2595 16.338C74.2595 16.9128 74.0296 17.4014 73.5698 17.8037C73.1099 18.1869 72.4872 18.3785 71.7017 18.3785Z" fill="#2F4C72"/>
<path d="M78.8733 34.1276C78.72 33.9169 78.5859 33.6678 78.4709 33.3804C78.3751 33.0738 78.3272 32.7673 78.3272 32.4607C78.787 31.8668 79.2852 31.2058 79.8217 30.4777C80.3581 29.7305 80.9042 28.9641 81.4598 28.1786C82.0346 27.3739 82.5902 26.5884 83.1267 25.822C83.6631 25.0556 84.1517 24.3371 84.5924 23.6665C85.0522 22.996 85.4354 22.4116 85.7419 21.9134L86.6041 22.6319H83.4428C82.8872 22.6319 82.4369 22.7086 82.092 22.8618C81.7663 23.0151 81.5077 23.3025 81.3161 23.724C81.1437 24.1455 80.9808 24.749 80.8275 25.5346C80.4252 25.5537 80.0132 25.5346 79.5917 25.4771C79.1702 25.4196 78.8062 25.3238 78.4997 25.1897C78.5954 24.5383 78.6625 23.8294 78.7008 23.063C78.7583 22.2966 78.787 21.5494 78.787 20.8213C79.1894 20.8405 79.678 20.8597 80.2527 20.8788C80.8467 20.8788 81.5077 20.8884 82.2357 20.9076C82.9638 20.9076 83.711 20.9076 84.4774 20.9076C85.2821 20.9076 86.0102 20.9076 86.6616 20.9076C87.3322 20.8884 87.9357 20.8788 88.4721 20.8788C89.0086 20.8597 89.4684 20.8405 89.8516 20.8213C90.0049 21.0129 90.1103 21.2524 90.1678 21.5398C90.2444 21.8081 90.2827 22.0763 90.2827 22.3445C89.7846 23.1109 89.2289 23.9539 88.6158 24.8736C88.0027 25.7741 87.3609 26.7033 86.6903 27.6613C86.0389 28.6193 85.3875 29.5485 84.7361 30.449C84.0846 31.3495 83.4715 32.1733 82.8967 32.9206L82.2932 32.317H85.7994C86.4508 32.317 86.949 32.2308 87.2938 32.0584C87.6387 31.8668 87.8782 31.5411 88.0123 31.0813C88.1656 30.6023 88.271 29.9317 88.3285 29.0695C88.7116 29.0503 89.0757 29.0599 89.4205 29.0982C89.7846 29.1174 90.1582 29.1845 90.5414 29.2994C90.5414 29.7018 90.5509 30.1712 90.5701 30.7076C90.5893 31.2249 90.6084 31.7327 90.6276 32.2308C90.6659 32.729 90.7138 33.1505 90.7713 33.4953C90.5797 33.9169 90.1965 34.1276 89.6217 34.1276C89.181 34.1276 88.6637 34.118 88.0698 34.0989C87.4759 34.0989 86.8436 34.0893 86.173 34.0701C85.5024 34.0701 84.8319 34.0701 84.1613 34.0701C82.8967 34.0701 81.8238 34.0701 80.9425 34.0701C80.0803 34.0893 79.3906 34.1084 78.8733 34.1276Z" fill="#2F4C72"/>
<path d="M98.9552 30.334C98.9552 31.656 98.869 32.8535 98.6966 33.9264C98.5433 34.9994 98.2367 35.9669 97.7769 36.8291C97.3171 37.6913 96.6465 38.4768 95.7652 39.1857C94.8838 39.9138 93.7247 40.5939 92.2877 41.2262C92.0387 41.0538 91.8566 40.8334 91.7417 40.5652C91.6267 40.3161 91.5501 40.0479 91.5118 39.7605C92.2207 39.224 92.805 38.6492 93.2649 38.0361C93.7247 37.4422 94.0695 36.7141 94.2995 35.852C94.5485 35.0089 94.6731 33.9456 94.6731 32.6619V19.212C94.6731 18.4264 94.6156 17.8421 94.5006 17.4589C94.4048 17.0565 94.2132 16.7787 93.9259 16.6254C93.6576 16.453 93.2649 16.3476 92.7475 16.3093C92.6709 16.0985 92.6134 15.8303 92.5751 15.5046C92.556 15.1789 92.5464 14.8628 92.5464 14.5562C92.8912 14.5754 93.3032 14.5945 93.7822 14.6137C94.2611 14.6328 94.7689 14.6424 95.3053 14.6424C95.8418 14.6424 96.3399 14.6424 96.7998 14.6424C97.5278 14.6424 98.2942 14.6424 99.0989 14.6424C99.9228 14.6233 100.584 14.5945 101.082 14.5562C101.082 14.9011 101.063 15.2268 101.024 15.5333C101.005 15.8207 100.957 16.0794 100.881 16.3093C100.344 16.3476 99.9323 16.4626 99.645 16.6542C99.3767 16.8266 99.1947 17.114 99.0989 17.5163C99.0031 17.9187 98.9552 18.4839 98.9552 19.212V30.334Z" fill="#2F4C72"/>
<path d="M109.023 34.3288C107.394 34.3288 106.072 34.0318 105.057 33.4379C104.041 32.8439 103.294 32.0392 102.815 31.0238C102.336 29.9892 102.097 28.8396 102.097 27.5751C102.097 26.2147 102.365 25.0173 102.901 23.9827C103.438 22.9481 104.204 22.1338 105.2 21.5398C106.216 20.9459 107.394 20.6489 108.735 20.6489C110.115 20.6489 111.236 20.9171 112.098 21.4536C112.979 21.9709 113.631 22.699 114.052 23.6378C114.474 24.5574 114.713 25.6016 114.771 26.7704C114.636 27.326 114.397 27.7762 114.052 28.1211C113.573 28.1211 112.989 28.1307 112.299 28.1498C111.609 28.1498 110.862 28.1594 110.057 28.1786C109.272 28.1786 108.467 28.1977 107.643 28.2361C106.839 28.2552 106.072 28.2935 105.344 28.351V26.4542H110.862C110.862 25.1706 110.67 24.1838 110.287 23.4941C109.923 22.7852 109.387 22.4307 108.678 22.4307C108.218 22.4307 107.806 22.584 107.442 22.8906C107.078 23.178 106.791 23.6474 106.58 24.2988C106.369 24.9311 106.264 25.7645 106.264 26.7991C106.264 27.7762 106.388 28.6767 106.637 29.5006C106.886 30.3244 107.298 30.9759 107.873 31.4549C108.467 31.9338 109.272 32.1733 110.287 32.1733C110.939 32.1733 111.59 32.0488 112.241 31.7997C112.893 31.5507 113.449 31.2249 113.908 30.8226C114.081 30.9184 114.244 31.11 114.397 31.3974C114.55 31.6848 114.627 31.9722 114.627 32.2596C113.918 32.9685 113.104 33.4953 112.184 33.8402C111.264 34.1659 110.211 34.3288 109.023 34.3288Z" fill="#2F4C72"/>
<path d="M122.235 34.3288C120.913 34.3288 119.917 33.9839 119.246 33.2942C118.576 32.6044 118.241 31.4453 118.241 29.8167V23.3504C117.934 23.2354 117.618 23.1492 117.292 23.0917C116.966 23.0343 116.574 22.996 116.114 22.9768C116.114 22.6319 116.133 22.3254 116.171 22.0571C116.229 21.7889 116.325 21.5015 116.459 21.195H118.241V17.66C118.873 17.5642 119.495 17.3918 120.109 17.1427C120.722 16.8745 121.229 16.5775 121.632 16.2518C121.9 16.3668 122.082 16.5296 122.178 16.7404C122.274 16.9511 122.322 17.3726 122.322 18.0049V21.195H125.856C125.856 21.5398 125.837 21.8655 125.799 22.1721C125.761 22.4595 125.694 22.7373 125.598 23.0055C124.946 23.0055 124.352 23.0438 123.816 23.1205C123.279 23.1971 122.781 23.3025 122.322 23.4366V29.3282C122.322 30.0945 122.369 30.6981 122.465 31.1387C122.58 31.5602 122.753 31.8572 122.983 32.0296C123.212 32.2021 123.49 32.2883 123.816 32.2883C124.142 32.2883 124.448 32.25 124.736 32.1733C125.042 32.0775 125.33 31.953 125.598 31.7997C125.866 32.1446 126.01 32.614 126.029 33.208C125.646 33.5337 125.1 33.8019 124.391 34.0126C123.701 34.2234 122.983 34.3288 122.235 34.3288Z" fill="#2F4C72"/>
<path d="M133.845 30.334C133.845 31.656 133.759 32.8535 133.587 33.9264C133.433 34.9994 133.127 35.9669 132.667 36.8291C132.207 37.6913 131.537 38.4768 130.655 39.1857C129.774 39.9138 128.615 40.5939 127.178 41.2262C126.929 41.0538 126.747 40.8334 126.632 40.5652C126.517 40.3161 126.44 40.0479 126.402 39.7605C127.111 39.224 127.695 38.6492 128.155 38.0361C128.615 37.4422 128.96 36.7141 129.19 35.852C129.439 35.0089 129.563 33.9456 129.563 32.6619V19.212C129.563 18.4264 129.506 17.8421 129.391 17.4589C129.295 17.0565 129.103 16.7787 128.816 16.6254C128.548 16.453 128.155 16.3476 127.638 16.3093C127.561 16.0985 127.503 15.8303 127.465 15.5046C127.446 15.1789 127.436 14.8628 127.436 14.5562C127.781 14.5754 128.193 14.5945 128.672 14.6137C129.151 14.6328 129.659 14.6424 130.195 14.6424C130.732 14.6424 131.23 14.6424 131.69 14.6424C132.418 14.6424 133.184 14.6424 133.989 14.6424C134.813 14.6233 135.474 14.5945 135.972 14.5562C135.972 14.9011 135.953 15.2268 135.914 15.5333C135.895 15.8207 135.847 16.0794 135.771 16.3093C135.234 16.3476 134.822 16.4626 134.535 16.6542C134.267 16.8266 134.085 17.114 133.989 17.5163C133.893 17.9187 133.845 18.4839 133.845 19.212V30.334Z" fill="#2F4C72"/>
<path d="M143.97 34.3288C142.457 34.3288 141.163 34.0605 140.09 33.5241C139.017 32.9685 138.203 32.1925 137.648 31.1962C137.111 30.1808 136.843 28.9929 136.843 27.6325C136.843 26.1573 137.159 24.9023 137.791 23.8677C138.424 22.8139 139.286 22.0188 140.378 21.4824C141.489 20.9267 142.725 20.6489 144.085 20.6489C145.656 20.6489 146.969 20.9363 148.022 21.5111C149.095 22.0859 149.9 22.881 150.437 23.8964C150.992 24.8927 151.27 26.0519 151.27 27.3739C151.27 28.7725 150.973 29.9987 150.379 31.0525C149.785 32.0871 148.942 32.8918 147.85 33.4666C146.758 34.0414 145.465 34.3288 143.97 34.3288ZM144.344 32.5182C145.244 32.5182 145.915 32.0967 146.356 31.2537C146.815 30.3915 147.045 29.3186 147.045 28.0349C147.045 26.8087 146.892 25.7741 146.585 24.9311C146.279 24.088 145.877 23.4558 145.378 23.0343C144.88 22.6128 144.334 22.402 143.74 22.402C142.84 22.402 142.169 22.8235 141.729 23.6665C141.288 24.4904 141.068 25.525 141.068 26.7704C141.068 27.8816 141.192 28.8779 141.441 29.7592C141.709 30.6214 142.093 31.3016 142.591 31.7997C143.089 32.2787 143.673 32.5182 144.344 32.5182Z" fill="#2F4C72"/>
<path d="M157.974 31.2824C158.3 31.7039 158.654 32.0392 159.037 32.2883C159.42 32.5182 159.89 32.6332 160.445 32.6332C160.809 32.6332 161.193 32.5661 161.595 32.432C161.997 32.2787 162.38 32.0105 162.745 31.6273C163.128 31.2441 163.434 30.7076 163.664 30.0179C163.894 29.3282 164.009 28.4372 164.009 27.3452C164.009 26.4447 163.885 25.6687 163.635 25.0173C163.406 24.3659 163.089 23.8677 162.687 23.5228C162.285 23.1588 161.825 22.9768 161.308 22.9768C160.809 22.9768 160.33 23.1396 159.871 23.4654C159.411 23.7719 159.028 24.2892 158.721 25.0173C158.434 25.7262 158.29 26.6841 158.29 27.8912V32.1446L157.974 31.2824ZM160.417 34.3288C159.44 34.3288 158.501 34.2426 157.6 34.0701C156.7 33.8977 155.895 33.6582 155.186 33.3516C154.496 33.0259 153.95 32.6715 153.548 32.2883C153.778 32.0009 153.941 31.6177 154.037 31.1387C154.152 30.6597 154.209 29.9796 154.209 29.0982V18.0911C154.209 17.6313 154.152 17.2577 154.037 16.9703C153.941 16.6829 153.74 16.4721 153.433 16.338C153.126 16.1848 152.667 16.089 152.054 16.0506C152.054 15.7632 152.073 15.4854 152.111 15.2172C152.169 14.9298 152.255 14.6616 152.37 14.4125C153.021 14.4125 153.682 14.3646 154.353 14.2688C155.042 14.173 155.665 14.0581 156.221 13.9239C156.776 13.7707 157.188 13.6174 157.457 13.4641C157.706 13.5599 157.907 13.7323 158.06 13.9814C158.213 14.2113 158.29 14.5466 158.29 14.9873V21.1662C158.29 21.6644 158.271 22.0667 158.232 22.3733C158.194 22.6798 158.137 23.0055 158.06 23.3504L157.801 25.4771L157.169 24.9311C157.476 24.1838 157.763 23.6091 158.031 23.2067C158.3 22.7852 158.549 22.4691 158.779 22.2583C158.989 22.0092 159.277 21.7697 159.641 21.5398C160.024 21.2908 160.465 21.08 160.963 20.9076C161.48 20.7351 162.026 20.6489 162.601 20.6489C163.712 20.6489 164.689 20.8597 165.532 21.2812C166.375 21.7027 167.036 22.3637 167.515 23.2642C167.994 24.1647 168.234 25.3238 168.234 26.7416C168.234 28.1977 167.908 29.5006 167.257 30.6502C166.605 31.7997 165.695 32.7002 164.526 33.3516C163.358 34.0031 161.988 34.3288 160.417 34.3288Z" fill="#2F4C72"/>
<path d="M180.408 21.5686C180.389 22.0476 180.379 22.5553 180.379 23.0917C180.398 23.6091 180.446 24.1168 180.523 24.6149C180.255 24.7682 179.929 24.8927 179.546 24.9885C179.163 25.0843 178.76 25.1322 178.339 25.1322C178.3 24.6341 178.166 24.1838 177.936 23.7815C177.726 23.36 177.419 23.0247 177.017 22.7756C176.633 22.5074 176.155 22.3733 175.58 22.3733C175.139 22.3733 174.785 22.4882 174.516 22.7181C174.248 22.9481 174.114 23.245 174.114 23.6091C174.114 23.8773 174.181 24.1264 174.315 24.3563C174.449 24.567 174.737 24.8065 175.177 25.0748C175.637 25.3238 176.327 25.64 177.247 26.0231C178.339 26.4638 179.191 26.8853 179.804 27.2877C180.417 27.6709 180.849 28.1019 181.098 28.5809C181.366 29.0408 181.5 29.5964 181.5 30.2478C181.5 31.11 181.251 31.8476 180.753 32.4607C180.274 33.0738 179.584 33.5432 178.684 33.869C177.783 34.1755 176.72 34.3288 175.493 34.3288C174.306 34.3288 173.328 34.2426 172.562 34.0701C171.796 33.8977 171.049 33.6486 170.32 33.3229C170.359 32.9589 170.388 32.5661 170.407 32.1446C170.426 31.7039 170.426 31.2728 170.407 30.8513C170.407 30.4298 170.388 30.0658 170.349 29.7592C170.617 29.5868 170.962 29.4623 171.384 29.3856C171.805 29.309 172.208 29.2707 172.591 29.2707C172.706 30.3436 173.012 31.1483 173.51 31.6848C174.028 32.2212 174.679 32.4895 175.465 32.4895C176.04 32.4895 176.499 32.3649 176.844 32.1159C177.189 31.8476 177.362 31.4932 177.362 31.0525C177.362 30.746 177.285 30.4873 177.132 30.2766C176.998 30.0466 176.729 29.8167 176.327 29.5868C175.944 29.3569 175.369 29.0887 174.603 28.7821C173.702 28.4372 172.945 28.0828 172.332 27.7188C171.719 27.3547 171.25 26.9141 170.924 26.3968C170.598 25.8603 170.435 25.1801 170.435 24.3563C170.435 23.724 170.579 23.178 170.867 22.7181C171.154 22.2583 171.547 21.8751 172.045 21.5686C172.562 21.262 173.137 21.0321 173.769 20.8788C174.421 20.7256 175.101 20.6489 175.81 20.6489C176.825 20.6489 177.687 20.7256 178.396 20.8788C179.105 21.0321 179.776 21.262 180.408 21.5686Z" fill="#2F4C72"/>
<defs>
<filter id="filter0_dd_961_83090" x="0.25" y="0.5" width="47.5" height="47.5" filterUnits="userSpaceOnUse" color-interpolation-filters="sRGB">
<feFlood flood-opacity="0" result="BackgroundImageFix"/>
<feColorMatrix in="SourceAlpha" type="matrix" values="0 0 0 0 0 0 0 0 0 0 0 0 0 0 0 0 0 0 127 0" result="hardAlpha"/>
<feOffset dy="1.25"/>
<feGaussianBlur stdDeviation="1.25"/>
<feColorMatrix type="matrix" values="0 0 0 0 0.0627451 0 0 0 0 0.0941176 0 0 0 0 0.156863 0 0 0 0.06 0"/>
<feBlend mode="normal" in2="BackgroundImageFix" result="effect1_dropShadow_961_83090"/>
<feColorMatrix in="SourceAlpha" type="matrix" values="0 0 0 0 0 0 0 0 0 0 0 0 0 0 0 0 0 0 127 0" result="hardAlpha"/>
<feOffset dy="1.25"/>
<feGaussianBlur stdDeviation="1.875"/>
<feColorMatrix type="matrix" values="0 0 0 0 0.0627451 0 0 0 0 0.0941176 0 0 0 0 0.156863 0 0 0 0.1 0"/>
<feBlend mode="normal" in2="effect1_dropShadow_961_83090" result="effect2_dropShadow_961_83090"/>
<feBlend mode="normal" in="SourceGraphic" in2="effect2_dropShadow_961_83090" result="shape"/>
</filter>
</defs>
</svg>
